<svg width="1477" height="102" viewBox="0 0 1477 102" fill="none" xmlns="http://www.w3.org/2000/svg">
<path d="M1 51L15.75 44.7209L30.5 38.5409L45.25 32.5574L60 26.8647L74.75 21.5526L89.5 16.705L104.25 12.3982L119 8.70013L133.75 5.6692L148.5 3.35315L163.25 1.78853L178 1H192.75L207.5 1.78853L222.25 3.35315L237 5.6692L251.75 8.70013L266.5 12.3982L281.25 16.705L296 21.5526L310.75 26.8647L325.5 32.5574L340.25 38.5409L355 44.7209L369.75 51L384.5 57.2791L399.25 63.4591L414 69.4426L428.75 75.1353L443.5 80.4474L458.25 85.295L473 89.6018L487.75 93.2999L502.5 96.3308L517.25 98.6468L532 100.211L546.75 101H561.5L576.25 100.211L591 98.6468L605.75 96.3308L620.5 93.2999L635.25 89.6018L650 85.295L664.75 80.4474L679.5 75.1353L694.25 69.4426L709 63.4591L723.75 57.2791L738.5 51L753.25 44.7209L768 38.5409L782.75 32.5574L797.5 26.8647L812.25 21.5526L827 16.705L841.75 12.3982L856.5 8.70013L871.25 5.6692L886 3.35315L900.75 1.78853L915.5 1L930.25 1L945 1.78853L959.75 3.35315L974.5 5.6692L989.25 8.70013L1004 12.3982L1018.75 16.705L1033.5 21.5526L1048.25 26.8647L1063 32.5574L1077.75 38.5409L1092.5 44.7209L1107.25 51L1122 57.2791L1136.75 63.4591L1151.5 69.4426L1166.25 75.1353L1181 80.4474L1195.75 85.295L1210.5 89.6018L1225.25 93.2999L1240 96.3308L1254.75 98.6468L1269.5 100.211L1284.25 101H1299L1313.75 100.211L1328.5 98.6468L1343.25 96.3308L1358 93.2999L1372.75 89.6018L1387.5 85.295L1402.25 80.4474L1417 75.1353L1431.75 69.4426L1446.5 63.4591L1461.25 57.2791L1476 51" stroke="#18A0FB"/>
</svg>
